<svg xmlns="http://www.w3.org/2000/svg" viewBox="0 0 380 280" width="380" height="280">
  <!-- Nürburgring Nordschleife VLN (Gesamtstrecke / Combined Layout) -->
  <!-- Track flows: GP Start → GP section → Nordschleife loop → back to GP -->

  <!-- ============================================ -->
  <!-- GP SECTION (bottom/south of the map)         -->
  <!-- ============================================ -->

  <!-- yokohama-s: from GP start/finish heading into first GP complex -->
  <path id="yokohama-s" class="track-section"
    d="M 168,250 C 165,248 160,244 156,240 C 152,236 148,233 145,231"
    stroke="#CCCCCC" stroke-width="3" fill="none" stroke-linecap="round" stroke-linejoin="round"/>

  <!-- ford-kurve -->
  <path id="ford-kurve" class="track-section"
    d="M 145,231 C 140,228 134,224 130,220 C 126,216 124,212 123,208"
    stroke="#CCCCCC" stroke-width="3" fill="none" stroke-linecap="round" stroke-linejoin="round"/>

  <!-- dunlop-kehre: tight hairpin -->
  <path id="dunlop-kehre" class="track-section"
    d="M 123,208 C 122,204 122,199 124,195 C 126,191 130,188 134,187"
    stroke="#CCCCCC" stroke-width="3" fill="none" stroke-linecap="round" stroke-linejoin="round"/>

  <!-- schumacher-s -->
  <path id="schumacher-s" class="track-section"
    d="M 134,187 C 138,186 143,186 148,188 C 153,190 156,193 158,196"
    stroke="#CCCCCC" stroke-width="3" fill="none" stroke-linecap="round" stroke-linejoin="round"/>

  <!-- kumho-kurve -->
  <path id="kumho-kurve" class="track-section"
    d="M 158,196 C 160,200 161,204 160,208 C 159,212 157,215 154,217"
    stroke="#CCCCCC" stroke-width="3" fill="none" stroke-linecap="round" stroke-linejoin="round"/>

  <!-- advan-bogen -->
  <path id="advan-bogen" class="track-section"
    d="M 154,217 C 151,219 148,221 146,224 C 144,227 144,230 146,233"
    stroke="#CCCCCC" stroke-width="3" fill="none" stroke-linecap="round" stroke-linejoin="round"/>

  <!-- ngk-schikane -->
  <path id="ngk-schikane" class="track-section"
    d="M 146,233 C 148,236 152,239 156,241 C 160,243 164,244 168,244"
    stroke="#CCCCCC" stroke-width="3" fill="none" stroke-linecap="round" stroke-linejoin="round"/>

  <!-- coca-cola-kurve -->
  <path id="coca-cola-kurve" class="track-section"
    d="M 168,244 C 174,244 180,244 185,243 C 190,242 194,240 196,237"
    stroke="#CCCCCC" stroke-width="3" fill="none" stroke-linecap="round" stroke-linejoin="round"/>

  <!-- gp-transition: link road from GP to Nordschleife -->
  <path id="gp-transition" class="track-section"
    d="M 196,237 C 198,234 200,230 201,226 C 202,222 202,218 201,214 C 200,210 198,207 195,205"
    stroke="#CCCCCC" stroke-width="3" fill="none" stroke-linecap="round" stroke-linejoin="round"/>

  <!-- ============================================ -->
  <!-- NORDSCHLEIFE (the great loop heading north)  -->
  <!-- ============================================ -->

  <!-- antoniusbuche: leaving GP area heading northwest -->
  <path id="antoniusbuche" class="track-section"
    d="M 195,205 C 192,203 188,201 184,200 C 180,199 176,199 172,200"
    stroke="#CCCCCC" stroke-width="3" fill="none" stroke-linecap="round" stroke-linejoin="round"/>

  <!-- tiergarten -->
  <path id="tiergarten" class="track-section"
    d="M 172,200 C 168,201 164,202 160,202 C 156,202 152,201 149,199"
    stroke="#CCCCCC" stroke-width="3" fill="none" stroke-linecap="round" stroke-linejoin="round"/>

  <!-- hohenrain -->
  <path id="hohenrain" class="track-section"
    d="M 149,199 C 146,197 143,194 140,191 C 137,188 135,184 133,180"
    stroke="#CCCCCC" stroke-width="3" fill="none" stroke-linecap="round" stroke-linejoin="round"/>

  <!-- t13 -->
  <path id="t13" class="track-section"
    d="M 133,180 C 131,176 129,172 127,168 C 125,164 123,160 120,157"
    stroke="#CCCCCC" stroke-width="3" fill="none" stroke-linecap="round" stroke-linejoin="round"/>

  <!-- sabine-schmitz-kurve (formerly Nürburgring turn, heading west) -->
  <path id="sabine-schmitz-kurve" class="track-section"
    d="M 120,157 C 117,154 113,152 109,151 C 105,150 101,150 97,151"
    stroke="#CCCCCC" stroke-width="3" fill="none" stroke-linecap="round" stroke-linejoin="round"/>

  <!-- hatzenbach: winding section heading northwest -->
  <path id="hatzenbach" class="track-section"
    d="M 97,151 C 93,152 89,153 86,152 C 83,151 80,148 78,145 C 76,142 75,138 76,135 C 77,132 79,129 82,127"
    stroke="#CCCCCC" stroke-width="3" fill="none" stroke-linecap="round" stroke-linejoin="round"/>

  <!-- hocheichen -->
  <path id="hocheichen" class="track-section"
    d="M 82,127 C 85,125 88,123 90,120 C 92,117 93,114 92,111"
    stroke="#CCCCCC" stroke-width="3" fill="none" stroke-linecap="round" stroke-linejoin="round"/>

  <!-- quiddelbacher-hohe -->
  <path id="quiddelbacher-hohe" class="track-section"
    d="M 92,111 C 91,108 89,105 87,102 C 85,99 84,96 84,93"
    stroke="#CCCCCC" stroke-width="3" fill="none" stroke-linecap="round" stroke-linejoin="round"/>

  <!-- flugplatz: notable jump/crest heading north -->
  <path id="flugplatz" class="track-section"
    d="M 84,93 C 84,90 85,86 87,83 C 89,80 92,78 95,76 C 98,74 101,73 104,72"
    stroke="#CCCCCC" stroke-width="3" fill="none" stroke-linecap="round" stroke-linejoin="round"/>

  <!-- kottenborn -->
  <path id="kottenborn" class="track-section"
    d="M 104,72 C 107,71 110,70 113,69 C 116,68 119,68 122,68"
    stroke="#CCCCCC" stroke-width="3" fill="none" stroke-linecap="round" stroke-linejoin="round"/>

  <!-- schwedenkreuz: fast section heading northeast -->
  <path id="schwedenkreuz" class="track-section"
    d="M 122,68 C 125,68 128,67 130,65 C 132,63 133,60 133,57"
    stroke="#CCCCCC" stroke-width="3" fill="none" stroke-linecap="round" stroke-linejoin="round"/>

  <!-- aremberg: sharp kink, notable corner -->
  <path id="aremberg" class="track-section"
    d="M 133,57 C 133,54 132,50 130,47 C 128,44 125,42 122,40 C 119,38 116,37 113,37"
    stroke="#CCCCCC" stroke-width="3" fill="none" stroke-linecap="round" stroke-linejoin="round"/>

  <!-- fuchsrohre: long descent heading north/northeast -->
  <path id="fuchsrohre" class="track-section"
    d="M 113,37 C 110,37 106,36 103,34 C 100,32 97,29 95,26 C 93,23 92,20 92,17"
    stroke="#CCCCCC" stroke-width="3" fill="none" stroke-linecap="round" stroke-linejoin="round"/>

  <!-- adenauer-forst: tight twisty section, track turns east -->
  <path id="adenauer-forst" class="track-section"
    d="M 92,17 C 92,14 94,11 97,9 C 100,7 104,6 108,7 C 112,8 115,10 117,13"
    stroke="#CCCCCC" stroke-width="3" fill="none" stroke-linecap="round" stroke-linejoin="round"/>

  <!-- metzgesfeld -->
  <path id="metzgesfeld" class="track-section"
    d="M 117,13 C 119,16 121,20 124,23 C 127,26 130,28 134,29"
    stroke="#CCCCCC" stroke-width="3" fill="none" stroke-linecap="round" stroke-linejoin="round"/>

  <!-- kallenhard -->
  <path id="kallenhard" class="track-section"
    d="M 134,29 C 138,30 142,30 146,29 C 150,28 153,26 155,23"
    stroke="#CCCCCC" stroke-width="3" fill="none" stroke-linecap="round" stroke-linejoin="round"/>

  <!-- wehrseifen: downhill hairpin -->
  <path id="wehrseifen" class="track-section"
    d="M 155,23 C 157,20 158,17 160,15 C 162,13 165,12 168,13 C 171,14 173,17 174,20"
    stroke="#CCCCCC" stroke-width="3" fill="none" stroke-linecap="round" stroke-linejoin="round"/>

  <!-- breidscheid -->
  <path id="breidscheid" class="track-section"
    d="M 174,20 C 175,23 176,27 178,30 C 180,33 183,35 186,37"
    stroke="#CCCCCC" stroke-width="3" fill="none" stroke-linecap="round" stroke-linejoin="round"/>

  <!-- ex-muhle -->
  <path id="ex-muhle" class="track-section"
    d="M 186,37 C 189,39 192,41 195,44 C 198,47 200,50 201,54"
    stroke="#CCCCCC" stroke-width="3" fill="none" stroke-linecap="round" stroke-linejoin="round"/>

  <!-- bergwerk: fast downhill right -->
  <path id="bergwerk" class="track-section"
    d="M 201,54 C 202,58 203,62 205,66 C 207,70 210,73 214,75"
    stroke="#CCCCCC" stroke-width="3" fill="none" stroke-linecap="round" stroke-linejoin="round"/>

  <!-- kesselchen -->
  <path id="kesselchen" class="track-section"
    d="M 214,75 C 218,77 222,79 226,82 C 230,85 233,88 235,92"
    stroke="#CCCCCC" stroke-width="3" fill="none" stroke-linecap="round" stroke-linejoin="round"/>

  <!-- klostertal -->
  <path id="klostertal" class="track-section"
    d="M 235,92 C 237,96 238,100 239,104 C 240,108 240,112 239,116"
    stroke="#CCCCCC" stroke-width="3" fill="none" stroke-linecap="round" stroke-linejoin="round"/>

  <!-- karussell: famous banked corner -->
  <path id="karussell" class="track-section"
    d="M 239,116 C 238,120 236,123 233,126 C 230,129 227,131 224,132"
    stroke="#CCCCCC" stroke-width="3" fill="none" stroke-linecap="round" stroke-linejoin="round"/>

  <!-- hohe-acht -->
  <path id="hohe-acht" class="track-section"
    d="M 224,132 C 221,133 218,134 216,136 C 214,138 213,141 214,144"
    stroke="#CCCCCC" stroke-width="3" fill="none" stroke-linecap="round" stroke-linejoin="round"/>

  <!-- hedwigshohe -->
  <path id="hedwigshohe" class="track-section"
    d="M 214,144 C 215,147 217,150 220,152 C 223,154 226,155 230,155"
    stroke="#CCCCCC" stroke-width="3" fill="none" stroke-linecap="round" stroke-linejoin="round"/>

  <!-- wippermann -->
  <path id="wippermann" class="track-section"
    d="M 230,155 C 234,155 238,155 242,156 C 246,157 249,159 252,162"
    stroke="#CCCCCC" stroke-width="3" fill="none" stroke-linecap="round" stroke-linejoin="round"/>

  <!-- eschbach -->
  <path id="eschbach" class="track-section"
    d="M 252,162 C 255,165 257,168 259,172 C 261,176 262,180 262,184"
    stroke="#CCCCCC" stroke-width="3" fill="none" stroke-linecap="round" stroke-linejoin="round"/>

  <!-- brunnchen -->
  <path id="brunnchen" class="track-section"
    d="M 262,184 C 262,188 262,192 263,196 C 264,200 266,203 269,205"
    stroke="#CCCCCC" stroke-width="3" fill="none" stroke-linecap="round" stroke-linejoin="round"/>

  <!-- eiskurve -->
  <path id="eiskurve" class="track-section"
    d="M 269,205 C 272,207 275,208 278,208 C 281,208 284,207 286,205"
    stroke="#CCCCCC" stroke-width="3" fill="none" stroke-linecap="round" stroke-linejoin="round"/>

  <!-- pflanzgarten-1: downhill, fast -->
  <path id="pflanzgarten-1" class="track-section"
    d="M 286,205 C 288,203 290,200 292,197 C 294,194 296,191 298,189"
    stroke="#CCCCCC" stroke-width="3" fill="none" stroke-linecap="round" stroke-linejoin="round"/>

  <!-- pflanzgarten-2 -->
  <path id="pflanzgarten-2" class="track-section"
    d="M 298,189 C 300,187 302,185 303,183 C 304,181 305,178 305,175"
    stroke="#CCCCCC" stroke-width="3" fill="none" stroke-linecap="round" stroke-linejoin="round"/>

  <!-- stefan-bellof-s -->
  <path id="stefan-bellof-s" class="track-section"
    d="M 305,175 C 305,172 304,169 302,167 C 300,165 297,163 294,162 C 291,161 288,162 286,164"
    stroke="#CCCCCC" stroke-width="3" fill="none" stroke-linecap="round" stroke-linejoin="round"/>

  <!-- schwalbenschwanz: track turns south -->
  <path id="schwalbenschwanz" class="track-section"
    d="M 286,164 C 284,166 283,169 282,172 C 281,175 280,178 279,181 C 278,184 276,187 274,189"
    stroke="#CCCCCC" stroke-width="3" fill="none" stroke-linecap="round" stroke-linejoin="round"/>

  <!-- kleines-karussell -->
  <path id="kleines-karussell" class="track-section"
    d="M 274,189 C 272,191 269,193 266,195 C 263,197 260,199 258,202"
    stroke="#CCCCCC" stroke-width="3" fill="none" stroke-linecap="round" stroke-linejoin="round"/>

  <!-- galgenkopf -->
  <path id="galgenkopf" class="track-section"
    d="M 258,202 C 256,205 254,209 252,213 C 250,217 248,221 246,225"
    stroke="#CCCCCC" stroke-width="3" fill="none" stroke-linecap="round" stroke-linejoin="round"/>

  <!-- dottinger-hohe: long straight heading south back to GP -->
  <path id="dottinger-hohe" class="track-section"
    d="M 246,225 C 244,229 240,234 236,238 C 232,242 227,245 222,248 C 217,251 211,253 205,254 C 199,255 193,255 187,254"
    stroke="#CCCCCC" stroke-width="3" fill="none" stroke-linecap="round" stroke-linejoin="round"/>

  <!-- nordschleife-transition: link back to GP start/finish -->
  <path id="nordschleife-transition" class="track-section"
    d="M 187,254 C 183,253 179,252 176,251 C 173,250 170,250 168,250"
    stroke="#CCCCCC" stroke-width="3" fill="none" stroke-linecap="round" stroke-linejoin="round"/>

</svg>